<svg width="118" height="34" viewBox="0 0 118 34" fill="none" xmlns="http://www.w3.org/2000/svg">
<g filter="url(#filter0_di_2_3)">
<path d="M25.1328 13.0645C25.1328 15.3613 24.668 17.4941 23.7383 19.4629C22.8086 21.418 21.5234 22.9424 19.8828 24.0361C18.2559 25.1299 16.5059 25.6768 14.6328 25.6768C11.8574 25.6768 9.41016 24.501 7.29102 22.1494C5.18555 19.7842 4.13281 16.7559 4.13281 13.0645C4.13281 9.35938 5.18555 6.33105 7.29102 3.97949C9.41016 1.62793 11.8574 0.452148 14.6328 0.452148C16.5059 0.452148 18.2559 0.999023 19.8828 2.09277C21.5098 3.18652 22.7881 4.71094 23.7178 6.66602C24.6611 8.62109 25.1328 10.7539 25.1328 13.0645ZM23.3896 13.0645C23.3896 10.2617 22.5762 7.74609 20.9492 5.51758C19.3223 3.28906 17.2168 2.1748 14.6328 2.1748C12.2129 2.1748 10.1416 3.24121 8.41895 5.37402C6.70996 7.49316 5.85547 10.0566 5.85547 13.0645C5.85547 16.2637 6.75098 18.8818 8.54199 20.9189C10.3467 22.9424 12.377 23.9541 14.6328 23.9541C17.2168 23.9541 19.3223 22.8467 20.9492 20.6318C22.5762 18.4033 23.3896 15.8809 23.3896 13.0645ZM37.2693 23.2773V2.72852H35.8133C35.4031 2.72852 35.1092 2.65332 34.9314 2.50293C34.7537 2.33887 34.6648 2.12695 34.6648 1.86719C34.6648 1.60742 34.7537 1.40234 34.9314 1.25195C35.1092 1.08789 35.4031 1.00586 35.8133 1.00586H45.0828C46.532 1.00586 47.8514 1.30664 49.0408 1.9082C50.2439 2.50977 51.16 3.19336 51.7889 3.95898C52.8689 5.25781 53.6893 6.63184 54.2498 8.08105C54.6463 9.13379 54.8445 10.3779 54.8445 11.8135V14.1924C54.8445 15.9561 54.4549 17.665 53.6756 19.3193C52.8963 20.9736 51.5975 22.416 49.7791 23.6465C48.4256 24.5488 46.8602 25 45.0828 25H35.8133C35.4031 25 35.1092 24.918 34.9314 24.7539C34.7537 24.5898 34.6648 24.3848 34.6648 24.1387C34.6648 23.8789 34.7537 23.6738 34.9314 23.5234C35.1092 23.3594 35.4031 23.2773 35.8133 23.2773H37.2693ZM38.992 23.2773H45.2469C46.6961 23.2773 48.0496 22.8057 49.3074 21.8623C50.5789 20.9189 51.5291 19.791 52.158 18.4785C52.8006 17.1523 53.1219 15.8467 53.1219 14.5615V11.4443C53.1219 10.3779 52.951 9.42773 52.6092 8.59375C52.117 7.37695 51.4197 6.22168 50.5174 5.12793C50.0252 4.52637 49.3006 3.97949 48.3436 3.4873C47.3865 2.98145 46.3543 2.72852 45.2469 2.72852H38.992V23.2773ZM67.8424 13.4131V23.2773H81.0904V18.1914C81.0904 17.7812 81.1656 17.4873 81.316 17.3096C81.4801 17.1318 81.692 17.043 81.9518 17.043C82.2115 17.043 82.4166 17.1318 82.567 17.3096C82.7311 17.4873 82.8131 17.7812 82.8131 18.1914V25H63.8023C63.3922 25 63.0982 24.918 62.9205 24.7539C62.7428 24.5898 62.6539 24.3848 62.6539 24.1387C62.6539 23.8789 62.7428 23.6738 62.9205 23.5234C63.0982 23.3594 63.3922 23.2773 63.8023 23.2773H66.1197V2.72852H63.8023C63.3922 2.72852 63.0982 2.65332 62.9205 2.50293C62.7428 2.33887 62.6539 2.12695 62.6539 1.86719C62.6539 1.60742 62.7428 1.40234 62.9205 1.25195C63.0982 1.08789 63.3922 1.00586 63.8023 1.00586H81.9107V6.93262C81.9107 7.34277 81.8287 7.63672 81.6646 7.81445C81.5143 7.99219 81.3092 8.08105 81.0494 8.08105C80.7896 8.08105 80.5777 7.99219 80.4137 7.81445C80.2633 7.63672 80.1881 7.34277 80.1881 6.93262V2.72852H67.8424V11.6904H74.0152V9.74219C74.0152 9.33203 74.0973 9.03809 74.2613 8.86035C74.4254 8.68262 74.6373 8.59375 74.8971 8.59375C75.1432 8.59375 75.3482 8.68262 75.5123 8.86035C75.6764 9.03809 75.7584 9.33203 75.7584 9.74219V15.3613C75.7584 15.7715 75.6764 16.0654 75.5123 16.2432C75.3482 16.4209 75.1432 16.5098 74.8971 16.5098C74.6373 16.5098 74.4254 16.4209 74.2613 16.2432C74.0973 16.0654 74.0152 15.7715 74.0152 15.3613V13.4131H67.8424ZM111.315 25H109.1L96.4057 3.52832V23.2773H99.5844C100.008 23.2773 100.309 23.3594 100.487 23.5234C100.664 23.6738 100.753 23.8789 100.753 24.1387C100.753 24.3848 100.664 24.5898 100.487 24.7539C100.309 24.918 100.008 25 99.5844 25H93.2475C92.8236 25 92.5229 24.918 92.3451 24.7539C92.1674 24.5898 92.0785 24.3848 92.0785 24.1387C92.0785 23.8789 92.1674 23.6738 92.3451 23.5234C92.5229 23.3594 92.8236 23.2773 93.2475 23.2773H94.683V2.72852H92.3656C91.9555 2.72852 91.6615 2.65332 91.4838 2.50293C91.3061 2.33887 91.2172 2.12695 91.2172 1.86719C91.2172 1.60742 91.3061 1.40234 91.4838 1.25195C91.6615 1.08789 91.9555 1.00586 92.3656 1.00586H96.8773L109.592 22.5186V2.72852H106.413C106.003 2.72852 105.709 2.65332 105.532 2.50293C105.354 2.33887 105.265 2.12695 105.265 1.86719C105.265 1.60742 105.347 1.40234 105.511 1.25195C105.689 1.08789 105.99 1.00586 106.413 1.00586H112.771C113.181 1.00586 113.475 1.08789 113.653 1.25195C113.83 1.40234 113.919 1.60742 113.919 1.86719C113.919 2.12695 113.83 2.33887 113.653 2.50293C113.475 2.65332 113.181 2.72852 112.771 2.72852H111.315V25Z" fill="#5A5A5A"/>
<path d="M23.7383 19.4629L24.6414 19.8923L24.6425 19.8899L23.7383 19.4629ZM19.8828 24.0361L19.3281 23.2041L19.3249 23.2062L19.8828 24.0361ZM7.29102 22.1494L6.54407 22.8143L6.54815 22.8189L7.29102 22.1494ZM7.29102 3.97949L6.54815 3.31005L6.546 3.31244L7.29102 3.97949ZM23.7178 6.66602L22.8147 7.09547L22.8171 7.10059L23.7178 6.66602ZM8.41895 5.37402L7.641 4.74569L7.64053 4.74627L8.41895 5.37402ZM8.54199 20.9189L7.79096 21.5792L7.7957 21.5846L8.54199 20.9189ZM20.9492 20.6318L21.7552 21.2238L21.7569 21.2215L20.9492 20.6318ZM24.1328 13.0645C24.1328 15.222 23.6972 17.208 22.834 19.0359L24.6425 19.8899C25.6387 17.7803 26.1328 15.5007 26.1328 13.0645H24.1328ZM22.8352 19.0334C21.9753 20.8418 20.8039 22.2202 19.3281 23.2041L20.4375 24.8682C22.243 23.6645 23.6419 21.9942 24.6414 19.8923L22.8352 19.0334ZM19.3249 23.2062C17.8548 24.1946 16.2975 24.6768 14.6328 24.6768V26.6768C16.7142 26.6768 18.657 26.0652 20.4407 24.866L19.3249 23.2062ZM14.6328 24.6768C12.1819 24.6768 9.99287 23.6538 8.03388 21.48L6.54815 22.8189C8.82745 25.3481 11.5329 26.6768 14.6328 26.6768V24.6768ZM8.03795 21.4845C6.12205 19.3322 5.13281 16.5538 5.13281 13.0645H3.13281C3.13281 16.9579 4.24905 20.2361 6.54408 22.8143L8.03795 21.4845ZM5.13281 13.0645C5.13281 9.56017 6.12269 6.78352 8.03603 4.64654L6.546 3.31244C4.24841 5.87859 3.13281 9.15858 3.13281 13.0645H5.13281ZM8.03388 4.64893C9.99287 2.47509 12.1819 1.45215 14.6328 1.45215V-0.547852C11.5329 -0.547852 8.82745 0.780768 6.54815 3.31005L8.03388 4.64893ZM14.6328 1.45215C16.2975 1.45215 17.8548 1.93434 19.3249 2.92267L20.4407 1.26288C18.657 0.0637096 16.7142 -0.547852 14.6328 -0.547852V1.45215ZM19.3249 2.92267C20.7878 3.9061 21.9538 5.28504 22.8147 7.09546L24.6209 6.23657C23.6224 4.13684 22.2318 2.46694 20.4407 1.26288L19.3249 2.92267ZM22.8171 7.10059C23.6909 8.91148 24.1328 10.8945 24.1328 13.0645H26.1328C26.1328 10.6133 25.6313 8.3307 24.6184 6.23144L22.8171 7.10059ZM24.3896 13.0645C24.3896 10.0533 23.5109 7.33053 21.7569 4.92793L20.1416 6.10722C21.6414 8.16166 22.3896 10.4701 22.3896 13.0645H24.3896ZM21.7569 4.92793C19.9566 2.46199 17.5606 1.1748 14.6328 1.1748V3.1748C16.873 3.1748 18.6879 4.11614 20.1416 6.10722L21.7569 4.92793ZM14.6328 1.1748C11.8681 1.1748 9.52501 2.4131 7.641 4.74569L9.19689 6.00236C10.7582 4.06932 12.5576 3.1748 14.6328 3.1748V1.1748ZM7.64053 4.74627C5.77294 7.06208 4.85547 9.8537 4.85547 13.0645H6.85547C6.85547 10.2596 7.64698 7.92425 9.19736 6.00178L7.64053 4.74627ZM4.85547 13.0645C4.85547 16.4607 5.81149 19.3278 7.79098 21.5792L9.29301 20.2587C7.69046 18.4359 6.85547 16.0667 6.85547 13.0645H4.85547ZM7.7957 21.5846C9.74837 23.7739 12.0347 24.9541 14.6328 24.9541V22.9541C12.7192 22.9541 10.945 22.1108 9.28829 20.2533L7.7957 21.5846ZM14.6328 24.9541C17.558 24.9541 19.9538 23.6761 21.7551 21.2238L20.1433 20.0398C18.6907 22.0172 16.8756 22.9541 14.6328 22.9541V24.9541ZM21.7569 21.2215C23.5116 18.818 24.3896 16.0881 24.3896 13.0645H22.3896C22.3896 15.6736 21.6408 17.9886 20.1416 20.0422L21.7569 21.2215ZM37.2693 23.2773V24.2773H38.2693V23.2773H37.2693ZM37.2693 2.72852H38.2693V1.72852H37.2693V2.72852ZM34.9314 2.50293L34.2532 3.23773L34.269 3.25237L34.2855 3.26632L34.9314 2.50293ZM34.9314 1.25195L35.5774 2.01534L35.5939 2.0014L35.6097 1.98676L34.9314 1.25195ZM49.0408 1.9082L48.5895 2.80058L48.5936 2.80263L49.0408 1.9082ZM51.7889 3.95898L51.0161 4.59374L51.02 4.59837L51.7889 3.95898ZM54.2498 8.08105L55.1857 7.72859L55.1825 7.72031L54.2498 8.08105ZM49.7791 23.6465L50.3338 24.4786L50.3395 24.4747L49.7791 23.6465ZM34.9314 23.5234L35.5774 24.2868L35.5939 24.2729L35.6097 24.2582L34.9314 23.5234ZM38.992 23.2773H37.992V24.2773H38.992V23.2773ZM49.3074 21.8623L48.7116 21.0592L48.7074 21.0623L49.3074 21.8623ZM52.158 18.4785L51.2581 18.0425L51.2562 18.0464L52.158 18.4785ZM52.6092 8.59375L51.6821 8.96873L51.6839 8.97297L52.6092 8.59375ZM50.5174 5.12793L49.7434 5.76117L49.746 5.76431L50.5174 5.12793ZM48.3436 3.4873L47.8762 4.37146L47.8862 4.37659L48.3436 3.4873ZM38.992 2.72852V1.72852H37.992V2.72852H38.992ZM38.2693 23.2773V2.72852H36.2693V23.2773H38.2693ZM37.2693 1.72852H35.8133V3.72852H37.2693V1.72852ZM35.8133 1.72852C35.6646 1.72852 35.5764 1.7144 35.533 1.70332C35.4899 1.69228 35.5213 1.69208 35.5774 1.73954L34.2855 3.26632C34.7378 3.649 35.329 3.72852 35.8133 3.72852V1.72852ZM35.6097 1.76813C35.6139 1.77198 35.6217 1.77998 35.6305 1.79248C35.6395 1.80512 35.6475 1.81939 35.6537 1.83422C35.6669 1.8657 35.6648 1.88154 35.6648 1.86719H33.6648C33.6648 2.38293 33.854 2.86923 34.2532 3.23773L35.6097 1.76813ZM35.6648 1.86719C35.6648 1.85211 35.6671 1.87449 35.6491 1.91616C35.6297 1.96077 35.601 1.9954 35.5774 2.01534L34.2855 0.488567C33.8555 0.852379 33.6648 1.35156 33.6648 1.86719H35.6648ZM35.6097 1.98676C35.5556 2.03668 35.5207 2.03987 35.554 2.03058C35.5893 2.02072 35.67 2.00586 35.8133 2.00586V0.00585938C35.314 0.00585938 34.7076 0.097635 34.2532 0.51715L35.6097 1.98676ZM35.8133 2.00586H45.0828V0.00585938H35.8133V2.00586ZM45.0828 2.00586C46.3892 2.00586 47.5519 2.27581 48.5895 2.80057L49.4921 1.01584C48.1508 0.337473 46.6749 0.00585938 45.0828 0.00585938V2.00586ZM48.5936 2.80263C49.7135 3.3626 50.5021 3.96796 51.0161 4.59372L52.5616 3.32424C51.8178 2.41876 50.7744 1.65693 49.488 1.01378L48.5936 2.80263ZM51.02 4.59837C52.0367 5.82107 52.799 7.10216 53.3171 8.4418L55.1825 7.72031C54.5795 6.16151 53.7011 4.69456 52.5578 3.3196L51.02 4.59837ZM53.314 8.43351C53.6581 9.34727 53.8445 10.4666 53.8445 11.8135H55.8445C55.8445 10.2893 55.6345 8.92031 55.1856 7.7286L53.314 8.43351ZM53.8445 11.8135V14.1924H55.8445V11.8135H53.8445ZM53.8445 14.1924C53.8445 15.8032 53.4898 17.3671 52.7709 18.8932L54.5802 19.7455C55.4199 17.963 55.8445 16.1089 55.8445 14.1924H53.8445ZM52.7709 18.8932C52.0823 20.3551 50.9182 21.6682 49.2187 22.8183L50.3395 24.4747C52.2767 23.1638 53.7103 21.5921 54.5802 19.7455L52.7709 18.8932ZM49.2244 22.8144C48.0503 23.5971 46.6818 24 45.0828 24V26C47.0385 26 48.8008 25.5005 50.3338 24.4785L49.2244 22.8144ZM45.0828 24H35.8133V26H45.0828V24ZM35.8133 24C35.67 24 35.5893 23.9851 35.554 23.9753C35.5207 23.966 35.5556 23.9692 35.6097 24.0191L34.2532 25.4887C34.7076 25.9082 35.314 26 35.8133 26V24ZM35.6097 24.0191C35.6147 24.0237 35.6337 24.0439 35.6491 24.0794C35.6643 24.1146 35.6648 24.1388 35.6648 24.1387H33.6648C33.6648 24.6583 33.8663 25.1316 34.2532 25.4887L35.6097 24.0191ZM35.6648 24.1387C35.6648 24.1236 35.6671 24.146 35.6491 24.1876C35.6297 24.2322 35.601 24.2669 35.5774 24.2868L34.2855 22.7601C33.8555 23.1239 33.6648 23.623 33.6648 24.1387H35.6648ZM35.6097 24.2582C35.5556 24.3082 35.5207 24.3114 35.554 24.3021C35.5893 24.2922 35.67 24.2773 35.8133 24.2773V22.2773C35.314 22.2773 34.7076 22.3691 34.2532 22.7886L35.6097 24.2582ZM35.8133 24.2773H37.2693V22.2773H35.8133V24.2773ZM38.992 24.2773H45.2469V22.2773H38.992V24.2773ZM45.2469 24.2773C46.9312 24.2773 48.4921 23.7238 49.9074 22.6623L48.7074 21.0623C47.6071 21.8875 46.461 22.2773 45.2469 22.2773V24.2773ZM49.9033 22.6654C51.2937 21.6338 52.3546 20.3825 53.0598 18.9106L51.2562 18.0464C50.7036 19.1996 49.8642 20.2041 48.7116 21.0592L49.9033 22.6654ZM53.0579 18.9146C53.7567 17.4724 54.1219 16.0184 54.1219 14.5615H52.1219C52.1219 15.6749 51.8445 16.8323 51.2581 18.0425L53.0579 18.9146ZM54.1219 14.5615V11.4443H52.1219V14.5615H54.1219ZM54.1219 11.4443C54.1219 10.2713 53.9338 9.18876 53.5345 8.21453L51.6839 8.97297C51.9682 9.6667 52.1219 10.4846 52.1219 11.4443H54.1219ZM53.5362 8.21877C53.0028 6.90013 52.2508 5.65768 51.2888 4.49155L49.746 5.76431C50.5886 6.78568 51.2312 7.85378 51.6821 8.96873L53.5362 8.21877ZM51.2913 4.49469C50.6857 3.75449 49.836 3.13038 48.8009 2.59802L47.8862 4.37659C48.7651 4.82861 49.3647 5.29825 49.7434 5.76117L51.2913 4.49469ZM48.8109 2.60321C47.7064 2.01943 46.5133 1.72852 45.2469 1.72852V3.72852C46.1953 3.72852 47.0666 3.94346 47.8762 4.3714L48.8109 2.60321ZM45.2469 1.72852H38.992V3.72852H45.2469V1.72852ZM37.992 2.72852V23.2773H39.992V2.72852H37.992ZM67.8424 13.4131V12.4131H66.8424V13.4131H67.8424ZM67.8424 23.2773H66.8424V24.2773H67.8424V23.2773ZM81.0904 23.2773V24.2773H82.0904V23.2773H81.0904ZM81.316 17.3096L80.5812 16.6313L80.5666 16.6472L80.5526 16.6636L81.316 17.3096ZM82.567 17.3096L81.8036 17.9555L81.8175 17.972L81.8322 17.9879L82.567 17.3096ZM82.8131 25V26H83.8131V25H82.8131ZM62.9205 23.5234L63.5665 24.2868L63.5829 24.2729L63.5988 24.2582L62.9205 23.5234ZM66.1197 23.2773V24.2773H67.1197V23.2773H66.1197ZM66.1197 2.72852H67.1197V1.72852H66.1197V2.72852ZM62.9205 2.50293L62.2422 3.23773L62.2581 3.25237L62.2746 3.26632L62.9205 2.50293ZM62.9205 1.25195L63.5665 2.01534L63.5829 2.0014L63.5988 1.98676L62.9205 1.25195ZM81.9107 1.00586H82.9107V0.00585938H81.9107V1.00586ZM81.6646 7.81445L80.9298 7.13617L80.9152 7.15203L80.9013 7.16851L81.6646 7.81445ZM80.4137 7.81445L79.6503 8.4604L79.6642 8.47687L79.6789 8.49273L80.4137 7.81445ZM80.1881 2.72852H81.1881V1.72852H80.1881V2.72852ZM67.8424 2.72852V1.72852H66.8424V2.72852H67.8424ZM67.8424 11.6904H66.8424V12.6904H67.8424V11.6904ZM74.0152 11.6904V12.6904H75.0152V11.6904H74.0152ZM74.0152 13.4131H75.0152V12.4131H74.0152V13.4131ZM66.8424 13.4131V23.2773H68.8424V13.4131H66.8424ZM67.8424 24.2773H81.0904V22.2773H67.8424V24.2773ZM82.0904 23.2773V18.1914H80.0904V23.2773H82.0904ZM82.0904 18.1914C82.0904 18.0427 82.1046 17.9545 82.1156 17.9112C82.1267 17.868 82.1269 17.8994 82.0794 17.9555L80.5526 16.6636C80.1699 17.1159 80.0904 17.7071 80.0904 18.1914H82.0904ZM82.0508 17.9879C82.047 17.992 82.039 17.9998 82.0265 18.0087C82.0138 18.0176 81.9996 18.0256 81.9847 18.0318C81.9532 18.045 81.9374 18.043 81.9518 18.043V16.043C81.436 16.043 80.9497 16.2321 80.5812 16.6313L82.0508 17.9879ZM81.9518 18.043C81.9668 18.043 81.9445 18.0452 81.9028 18.0272C81.8582 18.0078 81.8235 17.9791 81.8036 17.9555L83.3304 16.6636C82.9666 16.2337 82.4674 16.043 81.9518 16.043V18.043ZM81.8322 17.9879C81.7823 17.9338 81.7791 17.8988 81.7884 17.9321C81.7982 17.9675 81.8131 18.0482 81.8131 18.1914H83.8131C83.8131 17.6921 83.7213 17.0858 83.3018 16.6313L81.8322 17.9879ZM81.8131 18.1914V25H83.8131V18.1914H81.8131ZM82.8131 24H63.8023V26H82.8131V24ZM63.8023 24C63.6591 24 63.5784 23.9851 63.5431 23.9753C63.5098 23.966 63.5447 23.9692 63.5988 24.0191L62.2422 25.4887C62.6967 25.9082 63.303 26 63.8023 26V24ZM63.5988 24.0191C63.6038 24.0237 63.6227 24.0439 63.6381 24.0794C63.6533 24.1146 63.6539 24.1388 63.6539 24.1387H61.6539C61.6539 24.6583 61.8554 25.1316 62.2422 25.4887L63.5988 24.0191ZM63.6539 24.1387C63.6539 24.1236 63.6562 24.146 63.6381 24.1876C63.6188 24.2322 63.59 24.2669 63.5665 24.2868L62.2746 22.7601C61.8446 23.1239 61.6539 23.623 61.6539 24.1387H63.6539ZM63.5988 24.2582C63.5447 24.3082 63.5098 24.3114 63.5431 24.3021C63.5784 24.2922 63.6591 24.2773 63.8023 24.2773V22.2773C63.303 22.2773 62.6967 22.3691 62.2422 22.7886L63.5988 24.2582ZM63.8023 24.2773H66.1197V22.2773H63.8023V24.2773ZM67.1197 23.2773V2.72852H65.1197V23.2773H67.1197ZM66.1197 1.72852H63.8023V3.72852H66.1197V1.72852ZM63.8023 1.72852C63.6537 1.72852 63.5654 1.7144 63.5221 1.70332C63.4789 1.69228 63.5104 1.69208 63.5665 1.73954L62.2746 3.26632C62.7268 3.649 63.318 3.72852 63.8023 3.72852V1.72852ZM63.5988 1.76813C63.603 1.77198 63.6107 1.77998 63.6196 1.79248C63.6286 1.80512 63.6365 1.81939 63.6428 1.83422C63.656 1.8657 63.6539 1.88154 63.6539 1.86719H61.6539C61.6539 2.38293 61.843 2.86923 62.2422 3.23773L63.5988 1.76813ZM63.6539 1.86719C63.6539 1.85211 63.6562 1.87449 63.6381 1.91616C63.6188 1.96077 63.59 1.9954 63.5665 2.01534L62.2746 0.488567C61.8446 0.852379 61.6539 1.35156 61.6539 1.86719H63.6539ZM63.5988 1.98676C63.5447 2.03668 63.5098 2.03987 63.5431 2.03058C63.5784 2.02072 63.6591 2.00586 63.8023 2.00586V0.00585938C63.303 0.00585938 62.6967 0.097635 62.2422 0.51715L63.5988 1.98676ZM63.8023 2.00586H81.9107V0.00585938H63.8023V2.00586ZM80.9107 1.00586V6.93262H82.9107V1.00586H80.9107ZM80.9107 6.93262C80.9107 7.07586 80.8959 7.15656 80.886 7.19189C80.8767 7.22518 80.8799 7.19025 80.9298 7.13617L82.3995 8.49273C82.819 8.03826 82.9107 7.43194 82.9107 6.93262H80.9107ZM80.9013 7.16851C80.9212 7.14495 80.9558 7.11618 81.0004 7.09685C81.0421 7.07879 81.0645 7.08105 81.0494 7.08105V9.08105C81.565 9.08105 82.0642 8.89036 82.428 8.4604L80.9013 7.16851ZM81.0494 7.08105C81.0351 7.08105 81.0509 7.07901 81.0824 7.09221C81.0972 7.09843 81.1115 7.1064 81.1241 7.11536C81.1366 7.12422 81.1446 7.132 81.1485 7.13617L79.6789 8.49273C80.0474 8.89195 80.5337 9.08105 81.0494 9.08105V7.08105ZM81.1771 7.16851C81.2245 7.22461 81.2243 7.25602 81.2133 7.21286C81.2022 7.16955 81.1881 7.0813 81.1881 6.93262H79.1881C79.1881 7.41693 79.2676 8.00813 79.6503 8.4604L81.1771 7.16851ZM81.1881 6.93262V2.72852H79.1881V6.93262H81.1881ZM80.1881 1.72852H67.8424V3.72852H80.1881V1.72852ZM66.8424 2.72852V11.6904H68.8424V2.72852H66.8424ZM67.8424 12.6904H74.0152V10.6904H67.8424V12.6904ZM75.0152 11.6904V9.74219H73.0152V11.6904H75.0152ZM75.0152 9.74219C75.0152 9.59895 75.0301 9.51824 75.04 9.48291C75.0492 9.44962 75.0461 9.48455 74.9961 9.53863L73.5265 8.18207C73.107 8.63655 73.0152 9.24287 73.0152 9.74219H75.0152ZM74.9961 9.53863C74.9923 9.54281 74.9843 9.55058 74.9718 9.55945C74.9591 9.56841 74.9449 9.57638 74.93 9.58259C74.8986 9.5958 74.8827 9.59375 74.8971 9.59375V7.59375C74.3813 7.59375 73.895 7.78286 73.5265 8.18207L74.9961 9.53863ZM74.8971 9.59375C74.8972 9.59375 74.873 9.59318 74.8378 9.57796C74.8023 9.56256 74.7821 9.54362 74.7775 9.53863L76.2471 8.18207C75.89 7.79523 75.4167 7.59375 74.8971 7.59375V9.59375ZM74.7775 9.53863C74.7276 9.48455 74.7244 9.44962 74.7337 9.48291C74.7435 9.51824 74.7584 9.59895 74.7584 9.74219H76.7584C76.7584 9.24287 76.6666 8.63655 76.2471 8.18207L74.7775 9.53863ZM74.7584 9.74219V15.3613H76.7584V9.74219H74.7584ZM74.7584 15.3613C74.7584 15.5046 74.7435 15.5853 74.7337 15.6206C74.7244 15.6539 74.7276 15.619 74.7775 15.5649L76.2471 16.9214C76.6666 16.467 76.7584 15.8606 76.7584 15.3613H74.7584ZM74.7775 15.5649C74.7821 15.5599 74.8023 15.541 74.8378 15.5256C74.873 15.5103 74.8972 15.5098 74.8971 15.5098V17.5098C75.4167 17.5098 75.89 17.3083 76.2471 16.9214L74.7775 15.5649ZM74.8971 15.5098C74.8827 15.5098 74.8986 15.5077 74.93 15.5209C74.9449 15.5271 74.9591 15.5351 74.9718 15.5441C74.9843 15.5529 74.9923 15.5607 74.9961 15.5649L73.5265 16.9214C73.895 17.3207 74.3813 17.5098 74.8971 17.5098V15.5098ZM74.9961 15.5649C75.0461 15.619 75.0492 15.6539 75.04 15.6206C75.0301 15.5853 75.0152 15.5046 75.0152 15.3613H73.0152C73.0152 15.8606 73.107 16.467 73.5265 16.9214L74.9961 15.5649ZM75.0152 15.3613V13.4131H73.0152V15.3613H75.0152ZM74.0152 12.4131H67.8424V14.4131H74.0152V12.4131ZM111.315 25V26H112.315V25H111.315ZM109.1 25L108.239 25.5089L108.53 26H109.1V25ZM96.4057 3.52832L97.2665 3.0194L95.4057 -0.128051V3.52832H96.4057ZM96.4057 23.2773H95.4057V24.2773H96.4057V23.2773ZM100.487 23.5234L99.8084 24.2582L99.8243 24.2729L99.8408 24.2868L100.487 23.5234ZM92.3451 23.5234L92.9911 24.2868L93.0075 24.2729L93.0234 24.2582L92.3451 23.5234ZM94.683 23.2773V24.2773H95.683V23.2773H94.683ZM94.683 2.72852H95.683V1.72852H94.683V2.72852ZM91.4838 2.50293L90.8055 3.23773L90.8214 3.25237L90.8378 3.26632L91.4838 2.50293ZM91.4838 1.25195L92.1297 2.01534L92.1462 2.0014L92.1621 1.98676L91.4838 1.25195ZM96.8773 1.00586L97.7382 0.497047L97.4479 0.00585938H96.8773V1.00586ZM109.592 22.5186L108.731 23.0274L110.592 26.1759V22.5186H109.592ZM109.592 2.72852H110.592V1.72852H109.592V2.72852ZM105.532 2.50293L104.853 3.23773L104.869 3.25237L104.886 3.26632L105.532 2.50293ZM105.511 1.25195L106.187 1.98911L106.189 1.98676L105.511 1.25195ZM113.653 1.25195L112.974 1.98676L112.99 2.0014L113.007 2.01534L113.653 1.25195ZM113.653 2.50293L114.299 3.26632L114.315 3.25237L114.331 3.23773L113.653 2.50293ZM111.315 2.72852V1.72852H110.315V2.72852H111.315ZM111.315 24H109.1V26H111.315V24ZM109.961 24.4911L97.2665 3.0194L95.5449 4.03724L108.239 25.5089L109.961 24.4911ZM95.4057 3.52832V23.2773H97.4057V3.52832H95.4057ZM96.4057 24.2773H99.5844V22.2773H96.4057V24.2773ZM99.5844 24.2773C99.7369 24.2773 99.8245 24.2927 99.8647 24.3036C99.9037 24.3143 99.8666 24.3119 99.8084 24.2582L101.165 22.7886C100.706 22.3649 100.087 22.2773 99.5844 22.2773V24.2773ZM99.8408 24.2868C99.8172 24.2669 99.7884 24.2322 99.7691 24.1876C99.7511 24.146 99.7533 24.1236 99.7533 24.1387H101.753C101.753 23.623 101.563 23.1239 101.133 22.7601L99.8408 24.2868ZM99.7533 24.1387C99.7533 24.1388 99.7539 24.1146 99.7691 24.0794C99.7845 24.0439 99.8034 24.0237 99.8084 24.0191L101.165 25.4887C101.552 25.1316 101.753 24.6583 101.753 24.1387H99.7533ZM99.8084 24.0191C99.8666 23.9654 99.9037 23.9631 99.8647 23.9737C99.8245 23.9847 99.7369 24 99.5844 24V26C100.087 26 100.706 25.9124 101.165 25.4887L99.8084 24.0191ZM99.5844 24H93.2475V26H99.5844V24ZM93.2475 24C93.0949 24 93.0073 23.9847 92.9671 23.9737C92.9282 23.9631 92.9652 23.9654 93.0234 24.0191L91.6668 25.4887C92.1258 25.9124 92.7451 26 93.2475 26V24ZM93.0234 24.0191C93.0284 24.0237 93.0473 24.0439 93.0627 24.0794C93.0779 24.1146 93.0785 24.1388 93.0785 24.1387H91.0785C91.0785 24.6583 91.28 25.1316 91.6668 25.4887L93.0234 24.0191ZM93.0785 24.1387C93.0785 24.1236 93.0808 24.146 93.0627 24.1876C93.0434 24.2322 93.0146 24.2669 92.9911 24.2868L91.6992 22.7601C91.2692 23.1239 91.0785 23.623 91.0785 24.1387H93.0785ZM93.0234 24.2582C92.9652 24.3119 92.9282 24.3143 92.9671 24.3036C93.0073 24.2927 93.0949 24.2773 93.2475 24.2773V22.2773C92.7451 22.2773 92.1258 22.3649 91.6668 22.7886L93.0234 24.2582ZM93.2475 24.2773H94.683V22.2773H93.2475V24.2773ZM95.683 23.2773V2.72852H93.683V23.2773H95.683ZM94.683 1.72852H92.3656V3.72852H94.683V1.72852ZM92.3656 1.72852C92.2169 1.72852 92.1287 1.7144 92.0854 1.70332C92.0422 1.69228 92.0736 1.69208 92.1297 1.73954L90.8378 3.26632C91.2901 3.649 91.8813 3.72852 92.3656 3.72852V1.72852ZM92.1621 1.76813C92.1662 1.77198 92.174 1.77998 92.1829 1.79248C92.1918 1.80512 92.1998 1.81939 92.206 1.83422C92.2192 1.8657 92.2172 1.88154 92.2172 1.86719H90.2172C90.2172 2.38293 90.4063 2.86923 90.8055 3.23773L92.1621 1.76813ZM92.2172 1.86719C92.2172 1.85211 92.2194 1.87449 92.2014 1.91616C92.1821 1.96077 92.1533 1.9954 92.1297 2.01534L90.8378 0.488567C90.4079 0.852379 90.2172 1.35156 90.2172 1.86719H92.2172ZM92.1621 1.98676C92.108 2.03668 92.0731 2.03987 92.1063 2.03058C92.1417 2.02072 92.2224 2.00586 92.3656 2.00586V0.00585938C91.8663 0.00585938 91.26 0.097635 90.8055 0.51715L92.1621 1.98676ZM92.3656 2.00586H96.8773V0.00585938H92.3656V2.00586ZM96.0165 1.51467L108.731 23.0274L110.453 22.0097L97.7382 0.497047L96.0165 1.51467ZM110.592 22.5186V2.72852H108.592V22.5186H110.592ZM109.592 1.72852H106.413V3.72852H109.592V1.72852ZM106.413 1.72852C106.265 1.72852 106.177 1.7144 106.133 1.70332C106.09 1.69228 106.121 1.69208 106.178 1.73954L104.886 3.26632C105.338 3.649 105.929 3.72852 106.413 3.72852V1.72852ZM106.21 1.76813C106.214 1.77198 106.222 1.77998 106.231 1.79248C106.24 1.80512 106.248 1.81939 106.254 1.83422C106.267 1.8657 106.265 1.88154 106.265 1.86719H104.265C104.265 2.38293 104.454 2.86923 104.853 3.23773L106.21 1.76813ZM106.265 1.86719C106.265 1.84251 106.269 1.85552 106.255 1.88995C106.24 1.92785 106.215 1.96369 106.187 1.98911L104.835 0.514799C104.43 0.886691 104.265 1.37842 104.265 1.86719H106.265ZM106.189 1.98676C106.131 2.04047 106.094 2.04277 106.133 2.03215C106.173 2.02119 106.261 2.00586 106.413 2.00586V0.00585938C105.911 0.00585938 105.292 0.0934549 104.833 0.51715L106.189 1.98676ZM106.413 2.00586H112.771V0.00585938H106.413V2.00586ZM112.771 2.00586C112.914 2.00586 112.995 2.02072 113.03 2.03058C113.063 2.03987 113.029 2.03668 112.974 1.98676L114.331 0.51715C113.877 0.097635 113.27 0.00585938 112.771 0.00585938V2.00586ZM113.007 2.01534C112.983 1.9954 112.954 1.96077 112.935 1.91616C112.917 1.87449 112.919 1.85211 112.919 1.86719H114.919C114.919 1.35156 114.729 0.852379 114.299 0.488567L113.007 2.01534ZM112.919 1.86719C112.919 1.88154 112.917 1.8657 112.93 1.83422C112.937 1.81939 112.945 1.80512 112.954 1.79248C112.963 1.77998 112.97 1.77198 112.974 1.76813L114.331 3.23773C114.73 2.86923 114.919 2.38293 114.919 1.86719H112.919ZM113.007 1.73954C113.063 1.69208 113.094 1.69228 113.051 1.70332C113.008 1.7144 112.92 1.72852 112.771 1.72852V3.72852C113.255 3.72852 113.846 3.649 114.299 3.26632L113.007 1.73954ZM112.771 1.72852H111.315V3.72852H112.771V1.72852ZM110.315 2.72852V25H112.315V2.72852H110.315Z" fill="#5A5A5A"/>
</g>
<defs>
<filter id="filter0_di_2_3" x="0.132812" y="0.452148" width="117.786" height="33.2246" filterUnits="userSpaceOnUse" color-interpolation-filters="sRGB">
<feFlood flood-opacity="0" result="BackgroundImageFix"/>
<feColorMatrix in="SourceAlpha" type="matrix" values="0 0 0 0 0 0 0 0 0 0 0 0 0 0 0 0 0 0 127 0" result="hardAlpha"/>
<feOffset dy="4"/>
<feGaussianBlur stdDeviation="2"/>
<feComposite in2="hardAlpha" operator="out"/>
<feColorMatrix type="matrix" values="0 0 0 0 0 0 0 0 0 0 0 0 0 0 0 0 0 0 0.25 0"/>
<feBlend mode="normal" in2="BackgroundImageFix" result="effect1_dropShadow_2_3"/>
<feBlend mode="normal" in="SourceGraphic" in2="effect1_dropShadow_2_3" result="shape"/>
<feColorMatrix in="SourceAlpha" type="matrix" values="0 0 0 0 0 0 0 0 0 0 0 0 0 0 0 0 0 0 127 0" result="hardAlpha"/>
<feOffset dy="4"/>
<feGaussianBlur stdDeviation="2"/>
<feComposite in2="hardAlpha" operator="arithmetic" k2="-1" k3="1"/>
<feColorMatrix type="matrix" values="0 0 0 0 0 0 0 0 0 0 0 0 0 0 0 0 0 0 0.25 0"/>
<feBlend mode="normal" in2="shape" result="effect2_innerShadow_2_3"/>
</filter>
</defs>
</svg>
