<svg width="232" height="67" viewBox="0 0 232 67" fill="none" xmlns="http://www.w3.org/2000/svg">
<g filter="url(#filter0_di_2_3)">
<path d="M52.875 29.7188C52.875 34.9688 51.8125 39.8438 49.6875 44.3438C47.5625 48.8125 44.625 52.2969 40.875 54.7969C37.1562 57.2969 33.1562 58.5469 28.875 58.5469C22.5312 58.5469 16.9375 55.8594 12.0938 50.4844C7.28125 45.0781 4.875 38.1562 4.875 29.7188C4.875 21.25 7.28125 14.3281 12.0938 8.95312C16.9375 3.57812 22.5312 0.890625 28.875 0.890625C33.1562 0.890625 37.1562 2.14063 40.875 4.64062C44.5938 7.14062 47.5156 10.625 49.6406 15.0938C51.7969 19.5625 52.875 24.4375 52.875 29.7188ZM48.8906 29.7188C48.8906 23.3125 47.0312 17.5625 43.3125 12.4688C39.5938 7.375 34.7812 4.82812 28.875 4.82812C23.3438 4.82812 18.6094 7.26562 14.6719 12.1406C10.7656 16.9844 8.8125 22.8438 8.8125 29.7188C8.8125 37.0312 10.8594 43.0156 14.9531 47.6719C19.0781 52.2969 23.7188 54.6094 28.875 54.6094C34.7812 54.6094 39.5938 52.0781 43.3125 47.0156C47.0312 41.9219 48.8906 36.1562 48.8906 29.7188ZM71.0156 53.0625V6.09375H67.6875C66.75 6.09375 66.0781 5.92187 65.6719 5.57812C65.2656 5.20312 65.0625 4.71875 65.0625 4.125C65.0625 3.53125 65.2656 3.0625 65.6719 2.71875C66.0781 2.34375 66.75 2.15625 67.6875 2.15625H88.875C92.1875 2.15625 95.2031 2.84375 97.9219 4.21875C100.672 5.59375 102.766 7.15625 104.203 8.90625C106.672 11.875 108.547 15.0156 109.828 18.3281C110.734 20.7344 111.188 23.5781 111.188 26.8594V32.2969C111.188 36.3281 110.297 40.2344 108.516 44.0156C106.734 47.7969 103.766 51.0938 99.6094 53.9062C96.5156 55.9688 92.9375 57 88.875 57H67.6875C66.75 57 66.0781 56.8125 65.6719 56.4375C65.2656 56.0625 65.0625 55.5938 65.0625 55.0312C65.0625 54.4375 65.2656 53.9688 65.6719 53.625C66.0781 53.25 66.75 53.0625 67.6875 53.0625H71.0156ZM74.9531 53.0625H89.25C92.5625 53.0625 95.6562 51.9844 98.5312 49.8281C101.438 47.6719 103.609 45.0938 105.047 42.0938C106.516 39.0625 107.25 36.0781 107.25 33.1406V26.0156C107.25 23.5781 106.859 21.4062 106.078 19.5C104.953 16.7188 103.359 14.0781 101.297 11.5781C100.172 10.2031 98.5156 8.95312 96.3281 7.82812C94.1406 6.67187 91.7812 6.09375 89.25 6.09375H74.9531V53.0625ZM131.297 30.5156V53.0625H161.578V41.4375C161.578 40.5 161.75 39.8281 162.094 39.4219C162.469 39.0156 162.953 38.8125 163.547 38.8125C164.141 38.8125 164.609 39.0156 164.953 39.4219C165.328 39.8281 165.516 40.5 165.516 41.4375V57H122.062C121.125 57 120.453 56.8125 120.047 56.4375C119.641 56.0625 119.438 55.5938 119.438 55.0312C119.438 54.4375 119.641 53.9688 120.047 53.625C120.453 53.25 121.125 53.0625 122.062 53.0625H127.359V6.09375H122.062C121.125 6.09375 120.453 5.92187 120.047 5.57812C119.641 5.20312 119.438 4.71875 119.438 4.125C119.438 3.53125 119.641 3.0625 120.047 2.71875C120.453 2.34375 121.125 2.15625 122.062 2.15625H163.453V15.7031C163.453 16.6406 163.266 17.3125 162.891 17.7188C162.547 18.125 162.078 18.3281 161.484 18.3281C160.891 18.3281 160.406 18.125 160.031 17.7188C159.688 17.3125 159.516 16.6406 159.516 15.7031V6.09375H131.297V26.5781H145.406V22.125C145.406 21.1875 145.594 20.5156 145.969 20.1094C146.344 19.7031 146.828 19.5 147.422 19.5C147.984 19.5 148.453 19.7031 148.828 20.1094C149.203 20.5156 149.391 21.1875 149.391 22.125V34.9688C149.391 35.9062 149.203 36.5781 148.828 36.9844C148.453 37.3906 147.984 37.5938 147.422 37.5938C146.828 37.5938 146.344 37.3906 145.969 36.9844C145.594 36.5781 145.406 35.9062 145.406 34.9688V30.5156H131.297ZM221.062 57H216L186.984 7.92188V53.0625H194.25C195.219 53.0625 195.906 53.25 196.312 53.625C196.719 53.9688 196.922 54.4375 196.922 55.0312C196.922 55.5938 196.719 56.0625 196.312 56.4375C195.906 56.8125 195.219 57 194.25 57H179.766C178.797 57 178.109 56.8125 177.703 56.4375C177.297 56.0625 177.094 55.5938 177.094 55.0312C177.094 54.4375 177.297 53.9688 177.703 53.625C178.109 53.25 178.797 53.0625 179.766 53.0625H183.047V6.09375H177.75C176.812 6.09375 176.141 5.92187 175.734 5.57812C175.328 5.20312 175.125 4.71875 175.125 4.125C175.125 3.53125 175.328 3.0625 175.734 2.71875C176.141 2.34375 176.812 2.15625 177.75 2.15625H188.062L217.125 51.3281V6.09375H209.859C208.922 6.09375 208.25 5.92187 207.844 5.57812C207.438 5.20312 207.234 4.71875 207.234 4.125C207.234 3.53125 207.422 3.0625 207.797 2.71875C208.203 2.34375 208.891 2.15625 209.859 2.15625H224.391C225.328 2.15625 226 2.34375 226.406 2.71875C226.812 3.0625 227.016 3.53125 227.016 4.125C227.016 4.71875 226.812 5.20312 226.406 5.57812C226 5.92187 225.328 6.09375 224.391 6.09375H221.062V57Z" fill="#5A5A5A"/>
<path d="M49.6875 44.3438L50.5906 44.7732L50.5917 44.7708L49.6875 44.3438ZM40.875 54.7969L40.3203 53.9648L40.3171 53.967L40.875 54.7969ZM12.0938 50.4844L11.3468 51.1493L11.3509 51.1538L12.0938 50.4844ZM12.0938 8.95312L11.3509 8.28368L11.3487 8.28608L12.0938 8.95312ZM49.6406 15.0938L48.7375 15.5232L48.74 15.5283L49.6406 15.0938ZM14.6719 12.1406L13.8939 11.5123L13.8935 11.5129L14.6719 12.1406ZM14.9531 47.6719L14.2021 48.3322L14.2068 48.3375L14.9531 47.6719ZM43.3125 47.0156L44.1184 47.6076L44.1202 47.6053L43.3125 47.0156ZM51.875 29.7188C51.875 34.8294 50.8417 39.5576 48.7833 43.9167L50.5917 44.7708C52.7833 40.1299 53.875 35.1081 53.875 29.7188H51.875ZM48.7844 43.9143C46.7292 48.2363 43.9054 51.5747 40.3203 53.9648L41.4297 55.6289C45.3446 53.019 48.3958 49.3887 50.5906 44.7732L48.7844 43.9143ZM40.3171 53.967C36.7551 56.3616 32.9479 57.5469 28.875 57.5469V59.5469C33.3646 59.5469 37.5574 58.2322 41.4329 55.6268L40.3171 53.967ZM28.875 57.5469C22.8557 57.5469 17.5202 55.0122 12.8366 49.8149L11.3509 51.1538C16.3548 56.7065 22.2068 59.5469 28.875 59.5469V57.5469ZM12.8407 49.8195C8.21775 44.6262 5.875 37.9542 5.875 29.7188H3.875C3.875 38.3583 6.34475 45.5301 11.3468 51.1493L12.8407 49.8195ZM5.875 29.7188C5.875 21.4508 8.21839 14.7806 12.8388 9.62017L11.3487 8.28608C6.34411 13.8757 3.875 21.0492 3.875 29.7188H5.875ZM12.8366 9.62257C17.5202 4.42529 22.8557 1.89062 28.875 1.89062V-0.109375C22.2068 -0.109375 16.3548 2.73096 11.3509 8.28368L12.8366 9.62257ZM28.875 1.89062C32.9479 1.89062 36.7551 3.07594 40.3171 5.47052L41.4329 3.81073C37.5574 1.20531 33.3646 -0.109375 28.875 -0.109375V1.89062ZM40.3171 5.47052C43.8717 7.8602 46.6813 11.1991 48.7375 15.5232L50.5437 14.6643C48.3499 10.0509 45.3158 6.42105 41.4329 3.81073L40.3171 5.47052ZM48.74 15.5283C50.8267 19.8529 51.875 24.5781 51.875 29.7188H53.875C53.875 24.2969 52.7671 19.2721 50.5413 14.6592L48.74 15.5283ZM49.8906 29.7188C49.8906 23.1041 47.966 17.1469 44.1202 11.8791L42.5048 13.0584C46.0965 17.9781 47.8906 23.5209 47.8906 29.7188H49.8906ZM44.1202 11.8791C40.2281 6.54793 35.1251 3.82812 28.875 3.82812V5.82812C34.4374 5.82812 38.9594 8.20207 42.5048 13.0584L44.1202 11.8791ZM28.875 3.82812C22.999 3.82812 17.9928 6.43752 13.8939 11.5123L15.4498 12.769C19.226 8.09373 23.6885 5.82812 28.875 5.82812V3.82812ZM13.8935 11.5129C9.82861 16.5533 7.8125 22.6408 7.8125 29.7188H9.8125C9.8125 23.0467 11.7026 17.4155 15.4503 12.7684L13.8935 11.5129ZM7.8125 29.7188C7.8125 37.2282 9.91989 43.4615 14.2021 48.3322L15.7041 47.0116C11.7989 42.5697 9.8125 36.8343 9.8125 29.7188H7.8125ZM14.2068 48.3375C18.4798 53.1284 23.3765 55.6094 28.875 55.6094V53.6094C24.061 53.6094 19.6764 51.4653 15.6994 47.0063L14.2068 48.3375ZM28.875 55.6094C35.1224 55.6094 40.2253 52.9076 44.1184 47.6076L42.5066 46.4236C38.9622 51.2487 34.4401 53.6094 28.875 53.6094V55.6094ZM44.1202 47.6053C47.9666 42.3366 49.8906 36.3635 49.8906 29.7188H47.8906C47.8906 35.949 46.0959 41.5072 42.5048 46.426L44.1202 47.6053ZM71.0156 53.0625V54.0625H72.0156V53.0625H71.0156ZM71.0156 6.09375H72.0156V5.09375H71.0156V6.09375ZM65.6719 5.57812L64.9936 6.31293L65.0095 6.32757L65.0259 6.34151L65.6719 5.57812ZM65.6719 2.71875L66.3178 3.48214L66.3343 3.46819L66.3502 3.45355L65.6719 2.71875ZM97.9219 4.21875L97.4706 5.11113L97.4747 5.11318L97.9219 4.21875ZM104.203 8.90625L103.43 9.541L103.434 9.54564L104.203 8.90625ZM109.828 18.3281L110.764 17.9757L110.761 17.9674L109.828 18.3281ZM99.6094 53.9062L100.164 54.7383L100.17 54.7344L99.6094 53.9062ZM65.6719 53.625L66.3178 54.3884L66.3343 54.3744L66.3502 54.3598L65.6719 53.625ZM74.9531 53.0625H73.9531V54.0625H74.9531V53.0625ZM98.5312 49.8281L97.9354 49.025L97.9313 49.0281L98.5312 49.8281ZM105.047 42.0938L104.147 41.6577L104.145 41.6616L105.047 42.0938ZM106.078 19.5L105.151 19.875L105.153 19.8792L106.078 19.5ZM101.297 11.5781L100.523 12.2114L100.526 12.2145L101.297 11.5781ZM96.3281 7.82812L95.8608 8.71228L95.8708 8.71741L96.3281 7.82812ZM74.9531 6.09375V5.09375H73.9531V6.09375H74.9531ZM72.0156 53.0625V6.09375H70.0156V53.0625H72.0156ZM71.0156 5.09375H67.6875V7.09375H71.0156V5.09375ZM67.6875 5.09375C66.8242 5.09375 66.4495 4.9262 66.3178 4.81474L65.0259 6.34151C65.7067 6.91755 66.6758 7.09375 67.6875 7.09375V5.09375ZM66.3502 4.84332C66.1654 4.67276 66.0625 4.46278 66.0625 4.125H64.0625C64.0625 4.97472 64.3659 5.73349 64.9936 6.31293L66.3502 4.84332ZM66.0625 4.125C66.0625 3.78711 66.1638 3.61246 66.3178 3.48214L65.0259 1.95536C64.3675 2.51254 64.0625 3.27539 64.0625 4.125H66.0625ZM66.3502 3.45355C66.4797 3.33401 66.8392 3.15625 67.6875 3.15625V1.15625C66.6608 1.15625 65.6766 1.35349 64.9936 1.98395L66.3502 3.45355ZM67.6875 3.15625H88.875V1.15625H67.6875V3.15625ZM88.875 3.15625C92.0447 3.15625 94.9037 3.81292 97.4706 5.11112L98.3732 3.32638C95.5026 1.87458 92.3303 1.15625 88.875 1.15625V3.15625ZM97.4747 5.11318C100.141 6.44658 102.108 7.93085 103.43 9.54099L104.976 8.27151C103.423 6.38165 101.202 4.74092 98.3691 3.32432L97.4747 5.11318ZM103.434 9.54564C105.84 12.4383 107.657 15.486 108.895 18.6889L110.761 17.9674C109.437 14.5453 107.504 11.3117 104.972 8.26686L103.434 9.54564ZM108.892 18.6806C109.746 20.9479 110.188 23.6668 110.188 26.8594H112.188C112.188 23.4895 111.723 20.5209 110.764 17.9757L108.892 18.6806ZM110.188 26.8594V32.2969H112.188V26.8594H110.188ZM110.188 32.2969C110.188 36.1753 109.332 39.9365 107.611 43.5895L109.42 44.4418C111.262 40.5323 112.188 36.4809 112.188 32.2969H110.188ZM107.611 43.5895C105.92 47.1784 103.086 50.346 99.0489 53.0781L100.17 54.7344C104.445 51.8415 107.548 48.4154 109.42 44.4418L107.611 43.5895ZM99.0547 53.0742C96.1404 55.0171 92.7591 56 88.875 56V58C93.1159 58 96.8909 56.9204 100.164 54.7383L99.0547 53.0742ZM88.875 56H67.6875V58H88.875V56ZM67.6875 56C66.8392 56 66.4797 55.8222 66.3502 55.7027L64.9936 57.1723C65.6766 57.8028 66.6608 58 67.6875 58V56ZM66.3502 55.7027C66.153 55.5207 66.0625 55.3202 66.0625 55.0312H64.0625C64.0625 55.8673 64.3782 56.6043 64.9936 57.1723L66.3502 55.7027ZM66.0625 55.0312C66.0625 54.6934 66.1638 54.5187 66.3178 54.3884L65.0259 52.8616C64.3675 53.4188 64.0625 54.1816 64.0625 55.0312H66.0625ZM66.3502 54.3598C66.4797 54.2403 66.8392 54.0625 67.6875 54.0625V52.0625C66.6608 52.0625 65.6766 52.2597 64.9936 52.8902L66.3502 54.3598ZM67.6875 54.0625H71.0156V52.0625H67.6875V54.0625ZM74.9531 54.0625H89.25V52.0625H74.9531V54.0625ZM89.25 54.0625C92.7976 54.0625 96.0987 52.9025 99.1312 50.6281L97.9313 49.0281C95.2138 51.0662 92.3274 52.0625 89.25 52.0625V54.0625ZM99.1271 50.6312C102.152 48.3867 104.435 45.6852 105.949 42.5259L104.145 41.6616C102.784 44.5023 100.723 46.957 97.9354 49.025L99.1271 50.6312ZM105.947 42.5298C107.472 39.3826 108.25 36.2499 108.25 33.1406H106.25C106.25 35.9064 105.56 38.7424 104.147 41.6577L105.947 42.5298ZM108.25 33.1406V26.0156H106.25V33.1406H108.25ZM108.25 26.0156C108.25 23.4715 107.842 21.1673 107.003 19.1208L105.153 19.8792C105.877 21.6452 106.25 23.6848 106.25 26.0156H108.25ZM107.005 19.125C105.839 16.2419 104.19 13.5141 102.068 10.9417L100.526 12.2145C102.528 14.6421 104.067 17.1956 105.151 19.875L107.005 19.125ZM102.071 10.9449C100.832 9.43124 99.0511 8.10401 96.7855 6.93884L95.8708 8.71741C97.9802 9.80224 99.5114 10.975 100.523 12.2114L102.071 10.9449ZM96.7954 6.94403C94.4605 5.70986 91.9402 5.09375 89.25 5.09375V7.09375C91.6223 7.09375 93.8207 7.63389 95.8608 8.71222L96.7954 6.94403ZM89.25 5.09375H74.9531V7.09375H89.25V5.09375ZM73.9531 6.09375V53.0625H75.9531V6.09375H73.9531ZM131.297 30.5156V29.5156H130.297V30.5156H131.297ZM131.297 53.0625H130.297V54.0625H131.297V53.0625ZM161.578 53.0625V54.0625H162.578V53.0625H161.578ZM162.094 39.4219L161.359 38.7436L161.344 38.7595L161.33 38.7759L162.094 39.4219ZM164.953 39.4219L164.19 40.0678L164.204 40.0843L164.218 40.1002L164.953 39.4219ZM165.516 57V58H166.516V57H165.516ZM120.047 53.625L120.693 54.3884L120.709 54.3744L120.725 54.3598L120.047 53.625ZM127.359 53.0625V54.0625H128.359V53.0625H127.359ZM127.359 6.09375H128.359V5.09375H127.359V6.09375ZM120.047 5.57812L119.369 6.31293L119.384 6.32757L119.401 6.34151L120.047 5.57812ZM120.047 2.71875L120.693 3.48214L120.709 3.46819L120.725 3.45355L120.047 2.71875ZM163.453 2.15625H164.453V1.15625H163.453V2.15625ZM162.891 17.7188L162.156 17.0405L162.141 17.0563L162.127 17.0728L162.891 17.7188ZM160.031 17.7188L159.268 18.3647L159.282 18.3812L159.296 18.397L160.031 17.7188ZM159.516 6.09375H160.516V5.09375H159.516V6.09375ZM131.297 6.09375V5.09375H130.297V6.09375H131.297ZM131.297 26.5781H130.297V27.5781H131.297V26.5781ZM145.406 26.5781V27.5781H146.406V26.5781H145.406ZM145.406 30.5156H146.406V29.5156H145.406V30.5156ZM130.297 30.5156V53.0625H132.297V30.5156H130.297ZM131.297 54.0625H161.578V52.0625H131.297V54.0625ZM162.578 53.0625V41.4375H160.578V53.0625H162.578ZM162.578 41.4375C162.578 40.5742 162.746 40.1995 162.857 40.0678L161.33 38.7759C160.754 39.4567 160.578 40.4258 160.578 41.4375H162.578ZM162.829 40.1002C162.999 39.9154 163.209 39.8125 163.547 39.8125V37.8125C162.697 37.8125 161.938 38.1159 161.359 38.7436L162.829 40.1002ZM163.547 39.8125C163.885 39.8125 164.059 39.9138 164.19 40.0678L165.717 38.7759C165.159 38.1175 164.396 37.8125 163.547 37.8125V39.8125ZM164.218 40.1002C164.338 40.2297 164.516 40.5892 164.516 41.4375H166.516C166.516 40.4108 166.318 39.4266 165.688 38.7436L164.218 40.1002ZM164.516 41.4375V57H166.516V41.4375H164.516ZM165.516 56H122.062V58H165.516V56ZM122.062 56C121.214 56 120.855 55.8222 120.725 55.7027L119.369 57.1723C120.052 57.8028 121.036 58 122.062 58V56ZM120.725 55.7027C120.528 55.5207 120.438 55.3202 120.438 55.0312H118.438C118.438 55.8673 118.753 56.6043 119.369 57.1723L120.725 55.7027ZM120.438 55.0312C120.438 54.6934 120.539 54.5187 120.693 54.3884L119.401 52.8616C118.742 53.4188 118.438 54.1816 118.438 55.0312H120.438ZM120.725 54.3598C120.855 54.2403 121.214 54.0625 122.062 54.0625V52.0625C121.036 52.0625 120.052 52.2597 119.369 52.8902L120.725 54.3598ZM122.062 54.0625H127.359V52.0625H122.062V54.0625ZM128.359 53.0625V6.09375H126.359V53.0625H128.359ZM127.359 5.09375H122.062V7.09375H127.359V5.09375ZM122.062 5.09375C121.199 5.09375 120.825 4.9262 120.693 4.81474L119.401 6.34151C120.082 6.91755 121.051 7.09375 122.062 7.09375V5.09375ZM120.725 4.84332C120.54 4.67276 120.438 4.46278 120.438 4.125H118.438C118.438 4.97472 118.741 5.73349 119.369 6.31293L120.725 4.84332ZM120.438 4.125C120.438 3.78711 120.539 3.61246 120.693 3.48214L119.401 1.95536C118.742 2.51254 118.438 3.27539 118.438 4.125H120.438ZM120.725 3.45355C120.855 3.33401 121.214 3.15625 122.062 3.15625V1.15625C121.036 1.15625 120.052 1.35349 119.369 1.98395L120.725 3.45355ZM122.062 3.15625H163.453V1.15625H122.062V3.15625ZM162.453 2.15625V15.7031H164.453V2.15625H162.453ZM162.453 15.7031C162.453 16.5515 162.275 16.911 162.156 17.0405L163.625 18.397C164.256 17.714 164.453 16.7298 164.453 15.7031H162.453ZM162.127 17.0728C161.997 17.2268 161.822 17.3281 161.484 17.3281V19.3281C162.334 19.3281 163.097 19.0232 163.654 18.3647L162.127 17.0728ZM161.484 17.3281C161.147 17.3281 160.937 17.2252 160.766 17.0405L159.296 18.397C159.876 19.0248 160.635 19.3281 161.484 19.3281V17.3281ZM160.795 17.0728C160.683 16.9411 160.516 16.5665 160.516 15.7031H158.516C158.516 16.7148 158.692 17.6839 159.268 18.3647L160.795 17.0728ZM160.516 15.7031V6.09375H158.516V15.7031H160.516ZM159.516 5.09375H131.297V7.09375H159.516V5.09375ZM130.297 6.09375V26.5781H132.297V6.09375H130.297ZM131.297 27.5781H145.406V25.5781H131.297V27.5781ZM146.406 26.5781V22.125H144.406V26.5781H146.406ZM146.406 22.125C146.406 21.2767 146.584 20.9172 146.704 20.7877L145.234 19.4311C144.603 20.1141 144.406 21.0983 144.406 22.125H146.406ZM146.704 20.7877C146.874 20.6029 147.084 20.5 147.422 20.5V18.5C146.572 18.5 145.813 18.8034 145.234 19.4311L146.704 20.7877ZM147.422 20.5C147.711 20.5 147.911 20.5905 148.093 20.7877L149.563 19.4311C148.995 18.8157 148.258 18.5 147.422 18.5V20.5ZM148.093 20.7877C148.213 20.9172 148.391 21.2767 148.391 22.125H150.391C150.391 21.0983 150.193 20.1141 149.563 19.4311L148.093 20.7877ZM148.391 22.125V34.9688H150.391V22.125H148.391ZM148.391 34.9688C148.391 35.8171 148.213 36.1766 148.093 36.3061L149.563 37.6627C150.193 36.9797 150.391 35.9954 150.391 34.9688H148.391ZM148.093 36.3061C147.911 36.5032 147.711 36.5938 147.422 36.5938V38.5938C148.258 38.5938 148.995 38.278 149.563 37.6627L148.093 36.3061ZM147.422 36.5938C147.084 36.5938 146.874 36.4909 146.704 36.3061L145.234 37.6627C145.813 38.2904 146.572 38.5938 147.422 38.5938V36.5938ZM146.704 36.3061C146.584 36.1766 146.406 35.8171 146.406 34.9688H144.406C144.406 35.9954 144.603 36.9797 145.234 37.6627L146.704 36.3061ZM146.406 34.9688V30.5156H144.406V34.9688H146.406ZM145.406 29.5156H131.297V31.5156H145.406V29.5156ZM221.062 57V58H222.062V57H221.062ZM216 57L215.139 57.5089L215.43 58H216V57ZM186.984 7.92188L187.845 7.41295L185.984 4.2655V7.92188H186.984ZM186.984 53.0625H185.984V54.0625H186.984V53.0625ZM196.312 53.625L195.634 54.3598L195.65 54.3744L195.667 54.3884L196.312 53.625ZM177.703 53.625L178.349 54.3884L178.366 54.3744L178.381 54.3598L177.703 53.625ZM183.047 53.0625V54.0625H184.047V53.0625H183.047ZM183.047 6.09375H184.047V5.09375H183.047V6.09375ZM175.734 5.57812L175.056 6.31293L175.072 6.32757L175.088 6.34151L175.734 5.57812ZM175.734 2.71875L176.38 3.48214L176.397 3.46819L176.413 3.45355L175.734 2.71875ZM188.062 2.15625L188.923 1.64744L188.633 1.15625H188.062V2.15625ZM217.125 51.3281L216.264 51.8369L218.125 54.9854V51.3281H217.125ZM217.125 6.09375H218.125V5.09375H217.125V6.09375ZM207.844 5.57812L207.165 6.31293L207.181 6.32757L207.198 6.34151L207.844 5.57812ZM207.797 2.71875L208.473 3.45591L208.475 3.45355L207.797 2.71875ZM226.406 2.71875L225.728 3.45355L225.744 3.46819L225.76 3.48214L226.406 2.71875ZM226.406 5.57812L227.052 6.34151L227.069 6.32757L227.085 6.31293L226.406 5.57812ZM221.062 6.09375V5.09375H220.062V6.09375H221.062ZM221.062 56H216V58H221.062V56ZM216.861 56.4911L187.845 7.41295L186.124 8.4308L215.139 57.5089L216.861 56.4911ZM185.984 7.92188V53.0625H187.984V7.92188H185.984ZM186.984 54.0625H194.25V52.0625H186.984V54.0625ZM194.25 54.0625C195.14 54.0625 195.509 54.2444 195.634 54.3598L196.991 52.8902C196.303 52.2556 195.297 52.0625 194.25 52.0625V54.0625ZM195.667 54.3884C195.821 54.5187 195.922 54.6934 195.922 55.0312H197.922C197.922 54.1816 197.617 53.4188 196.958 52.8616L195.667 54.3884ZM195.922 55.0312C195.922 55.3202 195.831 55.5207 195.634 55.7027L196.991 57.1723C197.606 56.6043 197.922 55.8673 197.922 55.0312H195.922ZM195.634 55.7027C195.509 55.8181 195.14 56 194.25 56V58C195.297 58 196.303 57.8069 196.991 57.1723L195.634 55.7027ZM194.25 56H179.766V58H194.25V56ZM179.766 56C178.875 56 178.506 55.8181 178.381 55.7027L177.025 57.1723C177.712 57.8069 178.718 58 179.766 58V56ZM178.381 55.7027C178.184 55.5207 178.094 55.3202 178.094 55.0312H176.094C176.094 55.8673 176.409 56.6043 177.025 57.1723L178.381 55.7027ZM178.094 55.0312C178.094 54.6934 178.195 54.5187 178.349 54.3884L177.057 52.8616C176.399 53.4188 176.094 54.1816 176.094 55.0312H178.094ZM178.381 54.3598C178.506 54.2444 178.875 54.0625 179.766 54.0625V52.0625C178.718 52.0625 177.712 52.2556 177.025 52.8902L178.381 54.3598ZM179.766 54.0625H183.047V52.0625H179.766V54.0625ZM184.047 53.0625V6.09375H182.047V53.0625H184.047ZM183.047 5.09375H177.75V7.09375H183.047V5.09375ZM177.75 5.09375C176.887 5.09375 176.512 4.9262 176.38 4.81474L175.088 6.34151C175.769 6.91755 176.738 7.09375 177.75 7.09375V5.09375ZM176.413 4.84332C176.228 4.67276 176.125 4.46278 176.125 4.125H174.125C174.125 4.97472 174.428 5.73349 175.056 6.31293L176.413 4.84332ZM176.125 4.125C176.125 3.78711 176.226 3.61246 176.38 3.48214L175.088 1.95536C174.43 2.51254 174.125 3.27539 174.125 4.125H176.125ZM176.413 3.45355C176.542 3.33401 176.902 3.15625 177.75 3.15625V1.15625C176.723 1.15625 175.739 1.35349 175.056 1.98395L176.413 3.45355ZM177.75 3.15625H188.062V1.15625H177.75V3.15625ZM187.202 2.66506L216.264 51.8369L217.986 50.8193L188.923 1.64744L187.202 2.66506ZM218.125 51.3281V6.09375H216.125V51.3281H218.125ZM217.125 5.09375H209.859V7.09375H217.125V5.09375ZM209.859 5.09375C208.996 5.09375 208.621 4.9262 208.49 4.81474L207.198 6.34151C207.879 6.91755 208.848 7.09375 209.859 7.09375V5.09375ZM208.522 4.84332C208.337 4.67276 208.234 4.46278 208.234 4.125H206.234C206.234 4.97472 206.538 5.73349 207.165 6.31293L208.522 4.84332ZM208.234 4.125C208.234 3.76025 208.339 3.57815 208.473 3.4559L207.121 1.9816C206.505 2.54685 206.234 3.30225 206.234 4.125H208.234ZM208.475 3.45355C208.6 3.33819 208.969 3.15625 209.859 3.15625V1.15625C208.812 1.15625 207.806 1.34931 207.119 1.98395L208.475 3.45355ZM209.859 3.15625H224.391V1.15625H209.859V3.15625ZM224.391 3.15625C225.239 3.15625 225.598 3.33401 225.728 3.45355L227.085 1.98395C226.402 1.35349 225.417 1.15625 224.391 1.15625V3.15625ZM225.76 3.48214C225.914 3.61246 226.016 3.78711 226.016 4.125H228.016C228.016 3.27539 227.711 2.51254 227.052 1.95536L225.76 3.48214ZM226.016 4.125C226.016 4.46278 225.913 4.67276 225.728 4.84332L227.085 6.31293C227.712 5.73349 228.016 4.97472 228.016 4.125H226.016ZM225.76 4.81474C225.629 4.9262 225.254 5.09375 224.391 5.09375V7.09375C225.402 7.09375 226.371 6.91755 227.052 6.34151L225.76 4.81474ZM224.391 5.09375H221.062V7.09375H224.391V5.09375ZM220.062 6.09375V57H222.062V6.09375H220.062Z" fill="#5A5A5A"/>
</g>
<defs>
<filter id="filter0_di_2_3" x="0.875" y="0.890625" width="230.141" height="65.6562" filterUnits="userSpaceOnUse" color-interpolation-filters="sRGB">
<feFlood flood-opacity="0" result="BackgroundImageFix"/>
<feColorMatrix in="SourceAlpha" type="matrix" values="0 0 0 0 0 0 0 0 0 0 0 0 0 0 0 0 0 0 127 0" result="hardAlpha"/>
<feOffset dy="4"/>
<feGaussianBlur stdDeviation="2"/>
<feComposite in2="hardAlpha" operator="out"/>
<feColorMatrix type="matrix" values="0 0 0 0 0 0 0 0 0 0 0 0 0 0 0 0 0 0 0.25 0"/>
<feBlend mode="normal" in2="BackgroundImageFix" result="effect1_dropShadow_2_3"/>
<feBlend mode="normal" in="SourceGraphic" in2="effect1_dropShadow_2_3" result="shape"/>
<feColorMatrix in="SourceAlpha" type="matrix" values="0 0 0 0 0 0 0 0 0 0 0 0 0 0 0 0 0 0 127 0" result="hardAlpha"/>
<feOffset dy="4"/>
<feGaussianBlur stdDeviation="2"/>
<feComposite in2="hardAlpha" operator="arithmetic" k2="-1" k3="1"/>
<feColorMatrix type="matrix" values="0 0 0 0 0 0 0 0 0 0 0 0 0 0 0 0 0 0 0.25 0"/>
<feBlend mode="normal" in2="shape" result="effect2_innerShadow_2_3"/>
</filter>
</defs>
</svg>
